<?xml version="1.0"?>
<svg xmlns="http://www.w3.org/2000/svg" xmlns:xlink="http://www.w3.org/1999/xlink" xmlns:svgjs="http://svgjs.com/svgjs" version="1.1" width="512" height="512" x="0" y="0" viewBox="0 0 512 512" style="enable-background:new 0 0 512 512" xml:space="preserve" class=""><g><g xmlns="http://www.w3.org/2000/svg"><path d="m301.125 125.759v-5.384h12.437c33.188 0 60.188-27 60.188-60.188s-27.001-60.187-60.188-60.187h-115.124c-33.188 0-60.188 27-60.188 60.188s27 60.188 60.188 60.188h12.437v5.384c-86.255 20.429-150.625 98.08-150.625 190.49 0 107.937 87.813 195.75 195.75 195.75s195.75-87.813 195.75-195.75c0-92.41-64.371-170.061-150.625-190.491zm-60.25-5.259v-30.25h30.25v30.25zm-42.437-30.125c-16.646 0-30.188-13.542-30.188-30.188s13.542-30.187 30.188-30.187h115.124c16.646 0 30.188 13.542 30.188 30.188s-13.542 30.188-30.188 30.188h-12.437v-15.126c0-8.284-6.716-15-15-15h-60.25c-8.284 0-15 6.716-15 15v15.125zm57.562 391.625c-91.395 0-165.75-74.355-165.75-165.75s74.355-165.75 165.75-165.75 165.75 74.355 165.75 165.75-74.355 165.75-165.75 165.75z" fill="#5e56e7" data-original="#000000" style="" class=""/><path d="m335.69 217.115-122.324 48.02c-3.918 1.538-6.966 4.635-8.476 8.484l-.006-.002-48.019 122.323c-2.18 5.553-.862 11.87 3.356 16.088 2.867 2.867 6.703 4.394 10.609 4.394 1.842 0 3.699-.339 5.478-1.037l122.325-48.02-.002-.006c3.848-1.51 6.946-4.558 8.484-8.475l48.02-122.324c2.18-5.553.862-11.87-3.356-16.088-4.217-4.22-10.534-5.536-16.089-3.357zm-111.251 88.788 41.908 41.908-68.991 27.083zm63.122 20.695-41.908-41.908 68.991-27.083z" fill="#5e56e7" data-original="#000000" style="" class=""/></g></g></svg>
