<?xml version="1.0"?>
<svg xmlns="http://www.w3.org/2000/svg" xmlns:xlink="http://www.w3.org/1999/xlink" xmlns:svgjs="http://svgjs.com/svgjs" version="1.1" width="512" height="512" x="0" y="0" viewBox="0 0 512 512" style="enable-background:new 0 0 512 512" xml:space="preserve" class=""><g>
<g xmlns="http://www.w3.org/2000/svg">
	<g>
		<path d="M511.83,246.462c-0.04-1.01-0.08-2.02-0.13-3.02c-0.09-1.96-0.21-3.91-0.35-5.85c0-0.06,0-0.12-0.01-0.18    c-4.37-61.15-30.19-118.091-73.83-161.981C398.68,36.36,349.439,11.35,295.959,3c-1.92-0.3-3.85-0.58-5.78-0.84    c-0.02,0-0.03,0-0.04-0.01c-0.86-0.11-1.72-0.22-2.59-0.33c-1.09-0.13-2.18-0.26-3.27-0.38c-2.08-0.24-4.16-0.44-6.25-0.61    c-1.04-0.09-2.09-0.17-3.14-0.25c-1.05-0.07-2.1-0.15-3.15-0.21c-2.55-0.17-5.11-0.28-7.67-0.36h-16.4    c-0.04-0.01-0.09-0.01-0.13,0c-0.46,0.01-0.92,0.03-1.38,0.05c-0.18,0.01-0.35,0.01-0.52,0.02c-0.39,0.01-0.79,0.03-1.18,0.05    c-0.11,0-0.23,0.01-0.34,0.02c-0.75,0.04-1.5,0.07-2.25,0.11c-2.22,0.11-4.43,0.26-6.64,0.44c-0.97,0.08-1.93,0.16-2.88,0.25    c-0.19,0.02-0.37,0.04-0.56,0.06c-1.28,0.12-2.57,0.25-3.85,0.39c-0.19,0.02-0.39,0.04-0.59,0.07c-0.29,0.02-0.58,0.06-0.87,0.09    c-0.5,0.05-1.02,0.11-1.53,0.18c-0.48,0.05-0.95,0.11-1.42,0.17c-0.05,0.01-0.1,0.01-0.16,0.02c-0.1,0.01-0.19,0.03-0.29,0.04    c-0.78,0.1-1.56,0.2-2.34,0.31c-1.74,0.24-3.51,0.5-5.27,0.78c-0.91,0.15-1.82,0.3-2.72,0.45c-0.91,0.15-1.81,0.31-2.7,0.47    c-0.22,0.04-0.43,0.08-0.64,0.12c-0.73,0.13-1.45,0.27-2.18,0.42c-0.72,0.13-1.43,0.27-2.15,0.42c-0.72,0.15-1.44,0.29-2.16,0.45    c-0.62,0.12-1.23,0.25-1.85,0.39c-1.52,0.32-3.03,0.66-4.53,1.03c-0.49,0.12-0.97,0.23-1.45,0.35l-0.33,0.08    c-0.7,0.17-1.4,0.35-2.06,0.51c-0.33,0.08-0.65,0.18-0.97,0.26c-1.04,0.27-2.08,0.54-3.12,0.82c-0.3,0.08-0.6,0.17-0.9,0.25    c-0.78,0.21-1.55,0.43-2.33,0.65c-30.98,8.82-60.02,23.45-85.78,43.41c-1.16,0.89-2.31,1.8-3.45,2.71    c-0.91,0.73-1.82,1.47-2.72,2.21c-0.87,0.71-1.72,1.42-2.58,2.14c-0.93,0.78-1.86,1.58-2.78,2.38c-0.08,0.06-0.15,0.13-0.23,0.21    c-1.13,0.98-2.25,1.98-3.37,2.99c-1.15,1.04-2.3,2.1-3.44,3.16c-0.01,0.01-0.02,0.02-0.03,0.03c-0.92,0.86-1.84,1.73-2.75,2.62    c-0.39,0.36-0.76,0.73-1.14,1.1c-0.77,0.74-1.52,1.49-2.28,2.25c-0.18,0.18-0.36,0.36-0.54,0.55c-0.96,0.95-1.9,1.92-2.83,2.89    c-0.23,0.23-0.45,0.46-0.67,0.7c-0.88,0.92-1.75,1.84-2.61,2.77c-0.16,0.17-0.32,0.34-0.47,0.51c-1.04,1.12-2.06,2.25-3.07,3.38    c-0.78,0.88-1.55,1.76-2.32,2.65c-0.58,0.67-1.15,1.33-1.72,2.01c-0.57,0.67-1.14,1.34-1.7,2.02    c-31.71,38.05-51.44,83.94-57.23,132.971c-0.03,0.19-0.05,0.37-0.06,0.56c-0.18,1.49-0.34,2.98-0.49,4.48    c-0.07,0.72-0.14,1.44-0.21,2.17c-0.28,3.06-0.5,6.13-0.66,9.21c-0.04,0.63-0.07,1.25-0.1,1.88c-0.06,1.19-0.11,2.39-0.14,3.59    c-0.01,0.03-0.01,0.07,0,0.1v17.48c0.04,1.14,0.08,2.27,0.14,3.4c0.04,0.82,0.08,1.64,0.13,2.46c0.04,0.82,0.09,1.64,0.15,2.46    c0.05,0.82,0.11,1.64,0.17,2.46c0.03,0.37,0.05,0.74,0.09,1.11c0.03,0.31,0.05,0.62,0.08,0.92c0.02,0.32,0.05,0.65,0.08,0.97    c0.06,0.63,0.11,1.26,0.17,1.89c0.04,0.45,0.08,0.89,0.13,1.34c0.1,1.14,0.23,2.27,0.36,3.4c0.03,0.27,0.06,0.53,0.1,0.8    c0.09,0.79,0.19,1.57,0.29,2.36l0.02,0.17c0.01,0.08,0.02,0.17,0.03,0.25c0.12,0.97,0.25,1.93,0.39,2.9    c0.29,2.1,0.6,4.2,0.95,6.28c0.33,2,0.69,3.99,1.07,5.97c0.1,0.55,0.2,1.09,0.3,1.63c0.32,1.58,0.64,3.16,0.98,4.73    c0.27,1.21,0.54,2.42,0.82,3.63c0.03,0.13,0.06,0.27,0.09,0.4l0.15,0.66c0.06,0.25,0.13,0.51,0.19,0.76    c6.4,26.9,17.13,52.49,31.85,75.92c0.49,0.79,0.99,1.58,1.5,2.36c0.66,1.03,1.33,2.07,2.01,3.09c1.03,1.55,2.07,3.1,3.13,4.63    c0.1,0.14,0.19,0.28,0.29,0.42l0.2,0.29c0.42,0.59,0.82,1.17,1.24,1.75c0.34,0.5,0.7,1,1.06,1.49c0.8,1.1,1.62,2.23,2.52,3.42    c0.03,0.05,0.06,0.09,0.1,0.14l0.04,0.05c0.59,0.78,1.17,1.57,1.77,2.34c0.68,0.88,1.36,1.76,2.05,2.64    c0.05,0.07,0.11,0.14,0.17,0.21c0.41,0.53,0.83,1.05,1.26,1.58c0.45,0.58,0.91,1.15,1.38,1.72c0.46,0.58,0.93,1.15,1.42,1.72    c0.47,0.57,0.95,1.14,1.43,1.71c0.58,0.69,1.15,1.35,1.7,1.99c2.93,3.4,5.97,6.73,9.1,9.99c0.33,0.35,0.67,0.7,1,1.04    c0.74,0.77,1.49,1.53,2.24,2.28c0.84,0.84,1.68,1.68,2.53,2.51c0.65,0.64,1.31,1.28,1.97,1.91c0.28,0.27,0.57,0.55,0.86,0.82    c0.56,0.54,1.12,1.07,1.69,1.6l0.43,0.39c2.67,2.49,5.39,4.91,8.16,7.26c0.24,0.2,0.47,0.4,0.7,0.59    c0.85,0.72,1.72,1.45,2.58,2.15c0.47,0.38,0.93,0.76,1.4,1.13c1.07,0.88,2.15,1.74,3.24,2.6c0.42,0.33,0.82,0.64,1.21,0.95    c0.35,0.27,0.7,0.53,1.03,0.79c0.24,0.18,0.47,0.36,0.7,0.54c1.31,1,2.63,1.99,3.95,2.96l0.19,0.14c0.1,0.07,0.19,0.14,0.29,0.21    c3.51,2.57,7.07,5.06,10.69,7.44v0.09l2.41,1.47c0.07,0.04,0.14,0.09,0.22,0.14c2.55,1.63,5.13,3.21,7.74,4.74    c0.12,0.08,0.25,0.15,0.38,0.22c18.92,11.12,39.18,19.66,60.32,25.51c0.07,0.02,0.14,0.04,0.21,0.06    c0.11,0.03,0.21,0.06,0.32,0.09c0.58,0.17,1.15,0.33,1.73,0.48c0.92,0.25,1.85,0.5,2.78,0.73c0.74,0.19,1.48,0.38,2.23,0.55    c0.28,0.08,0.57,0.14,0.85,0.21c1.56,0.39,3.13,0.75,4.71,1.1c0.03,0.01,0.06,0.01,0.09,0.02c0.02,0,0.04,0.01,0.06,0.01    c0.89,0.2,1.78,0.4,2.67,0.58c0.12,0.03,0.23,0.06,0.35,0.08c1.03,0.22,2.06,0.43,3.1,0.63c0.32,0.07,0.64,0.13,0.97,0.19    c0.32,0.07,0.64,0.13,0.97,0.19c0.43,0.08,0.86,0.16,1.29,0.24c0.15,0.03,0.31,0.06,0.47,0.08c0.7,0.14,1.42,0.27,2.13,0.39    l0.84,0.14c0.7,0.12,1.39,0.24,2.1,0.34c0.19,0.04,0.38,0.07,0.58,0.1l0.23,0.04c0.07,0.01,0.14,0.02,0.22,0.03    c0.88,0.14,1.76,0.27,2.64,0.4c0.06,0.01,0.13,0.02,0.19,0.03c0.92,0.14,1.84,0.27,2.83,0.39l0.17,0.03    c0.18,0.02,0.37,0.04,0.55,0.07c0.47,0.06,0.94,0.13,1.41,0.19c1.23,0.16,2.46,0.3,3.7,0.43c0.91,0.11,1.82,0.21,2.74,0.29    c0.46,0.05,0.93,0.1,1.4,0.14c0.92,0.09,1.84,0.17,2.76,0.24c0.47,0.05,0.94,0.08,1.41,0.12c0.52,0.04,1.03,0.08,1.55,0.11    c0.26,0.02,0.51,0.04,0.75,0.05c0.88,0.06,1.75,0.12,2.63,0.17c1.6,0.1,3.2,0.18,4.8,0.24c0.54,0.03,1.08,0.05,1.62,0.06    c0.01,0,0.03,0.01,0.04,0h17.68c65.07-2.21,125.911-28.6,172.171-74.86C485.36,388.753,512,324.432,512,256.012    C511.999,252.822,511.939,249.632,511.83,246.462z M255.928,90.791h0.07c24.47,0.04,44.36,19.95,44.36,44.43    c0,24.48-19.89,44.39-44.36,44.43h-0.07c-24.5,0-44.43-19.93-44.43-44.43C211.498,110.721,231.428,90.791,255.928,90.791z     M255.998,482.153h-0.81c-0.25-0.01-0.49-0.02-0.74-0.02l-2.96-0.09l-0.45-0.02c-54.81-2.82-99.381-51.71-99.381-109.041    c0-25.26,9.13-49.6,25.7-68.59l0.37-0.41c19.8-22.47,48.33-35.36,78.27-35.37h4.3c36.23,0,70.2-14.2,95.651-40l0.02-0.02    l1.67-1.69l0.24-0.48c20.86-24.31,32.32-55.26,32.32-87.38c0-30.08-9.73-58.35-26.1-81.451    c55.04,30.2,96.281,82.651,111.521,145.031c0.49,2.01,0.95,4.04,1.39,6.07c0.22,1.03,0.43,2.07,0.64,3.11    c0.65,3.27,1.23,6.56,1.74,9.87c0.01,0.11,0.03,0.22,0.05,0.33c0.11,0.76,0.22,1.52,0.33,2.28c0.02,0.18,0.05,0.35,0.08,0.53    c0.12,0.87,0.24,1.74,0.34,2.61c0.12,0.93,0.23,1.87,0.34,2.81c0.11,0.91,0.21,1.82,0.3,2.74c0,0.04,0.01,0.08,0.01,0.12    c0.1,0.93,0.18,1.87,0.27,2.8c0.08,0.95,0.16,1.9,0.23,2.85c0.08,0.95,0.14,1.9,0.2,2.86c0.05,0.73,0.09,1.46,0.13,2.2    c0.02,0.36,0.04,0.73,0.06,1.09c0.07,1.41,0.12,2.82,0.16,4.24c0.02,0.44,0.03,0.87,0.04,1.31c0.05,1.85,0.07,3.71,0.07,5.57    C481.999,380.652,380.63,482.073,255.998,482.153z" fill="#5e56e7" data-original="#000000" style="" class=""/>
	</g>
</g>
<g xmlns="http://www.w3.org/2000/svg">
	<g>
		<path d="M256,332.001h-0.07c-24.5,0-44.43,19.93-44.43,44.43c0,24.5,19.93,44.43,44.43,44.43H256    c24.47-0.04,44.36-19.95,44.36-44.43C300.36,351.951,280.47,332.041,256,332.001z" fill="#5e56e7" data-original="#000000" style="" class=""/>
	</g>
</g>
<g xmlns="http://www.w3.org/2000/svg">
	<g>
		<path d="M257.49,0.179h-0.27l0.39,0.01l0.54,0.01c0.86,0.01,1.57,0.03,2.19,0.06l1.15,0.06c0.03,0,0.06,0,0.09,0.01l10.36,0.35    C267.16,0.379,262.34,0.209,257.49,0.179z" fill="#5e56e7" data-original="#000000" style="" class=""/>
	</g>
</g>
<g xmlns="http://www.w3.org/2000/svg">
	<g>
		<path d="M257.49,0.179h-0.27l0.39,0.01l0.54,0.01c0.86,0.01,1.57,0.03,2.19,0.06l1.15,0.06c0.03,0,0.06,0,0.09,0.01l10.36,0.35    C267.16,0.379,262.34,0.209,257.49,0.179z" fill="#5e56e7" data-original="#000000" style="" class=""/>
	</g>
</g>
<g xmlns="http://www.w3.org/2000/svg">
</g>
<g xmlns="http://www.w3.org/2000/svg">
</g>
<g xmlns="http://www.w3.org/2000/svg">
</g>
<g xmlns="http://www.w3.org/2000/svg">
</g>
<g xmlns="http://www.w3.org/2000/svg">
</g>
<g xmlns="http://www.w3.org/2000/svg">
</g>
<g xmlns="http://www.w3.org/2000/svg">
</g>
<g xmlns="http://www.w3.org/2000/svg">
</g>
<g xmlns="http://www.w3.org/2000/svg">
</g>
<g xmlns="http://www.w3.org/2000/svg">
</g>
<g xmlns="http://www.w3.org/2000/svg">
</g>
<g xmlns="http://www.w3.org/2000/svg">
</g>
<g xmlns="http://www.w3.org/2000/svg">
</g>
<g xmlns="http://www.w3.org/2000/svg">
</g>
<g xmlns="http://www.w3.org/2000/svg">
</g>
</g></svg>
